<svg width="729" height="545" fill="none" xmlns="http://www.w3.org/2000/svg"><path d="M247.739 544.614c34.631 0 62.706-2.621 62.706-5.855 0-3.233-28.075-5.854-62.706-5.854s-62.705 2.621-62.705 5.854c0 3.234 28.074 5.855 62.705 5.855zM569.863 544.614c34.631 0 62.705-2.621 62.705-5.855 0-3.233-28.074-5.854-62.705-5.854s-62.705 2.621-62.705 5.854c0 3.234 28.074 5.855 62.705 5.855z" fill="#C8DBFB"/><path d="M702.348 126.49c-.179-1.086-.373-2.156-.584-3.194" stroke="#C8DBFB" stroke-linecap="round" stroke-linejoin="round"/><path d="M700.222 117.02c-11.178-38.0779-46.854-34.3967-79.091-34.3318-34.703.0649-571.9068 1.1838-571.9068 1.1838-53.993.1136-48.7527 78.02-6.4896 77.923 24.3033-.049 33.5509 45.57-8.4688 45.651-25.2119.048-26.023 31.996-9.0692 38.402" stroke="#C8DBFB" stroke-linecap="round" stroke-linejoin="round" stroke-dasharray="3.99 3.99"/><path d="M28.3115 246.675c1.0221.178 2.1091.275 3.2448.259" stroke="#C8DBFB" stroke-linecap="round" stroke-linejoin="round"/><path d="M38.1758 245.458c.7138 4.233-2.1253 8.239-6.3598 8.968-4.2344.714-8.2417-2.124-8.9718-6.357-.7138-4.232 2.1254-8.238 6.3598-8.968 4.2344-.713 8.2579 2.141 8.9718 6.357zM709.989 129.993c-.763 4.217-4.819 7.022-9.037 6.244-4.218-.762-7.025-4.817-6.246-9.033.762-4.217 4.818-7.022 9.037-6.244 4.218.762 7.008 4.801 6.246 9.033zM117.38 188.731c-1.119 6.309-2.758 12.471-4.753 18.553-4.299 13.119-10.237 25.752-16.2402 38.223-3.1312 6.519-15.8345 21.601-22.6485 24.472.795-17.012.8599-36.878-1.1194-54.052-1.8982-16.541 4.0559-29.077-2.4336-44.418-.8274-1.962-1.6873-3.925-2.5471-5.887-3.2286-7.298-6.4247-14.628-7.4306-22.493-1.2979-9.973 1.8009-21.342 10.432-26.531 6.2137-3.73 14.3094-3.535 20.9449-.6 6.6356 2.935 11.9575 8.303 15.9965 14.32 11.308 16.8 13.352 38.499 9.799 58.413z" fill="#5193F4"/><path d="M87.2044 133.642c12.7033 17.936 13.8066 38.824 14.9096 60.765 1.103 21.942-4.1694 44.175-15.0232 63.279" stroke="#0B43A4" stroke-miterlimit="10" stroke-linecap="round" stroke-linejoin="round"/><path d="M86.6691 464.437c-8.9069-7.865-17.9111-15.844-24.498-25.737-5.727-8.611-9.426-18.39-14.423-27.455-3.2285-5.854-7.0573-11.514-8.9231-17.936-1.8657-6.422-1.4277-14.044 3.1474-18.925 4.7698-5.109 12.9629-5.887 19.4362-3.26s11.4216 8.076 15.1855 13.947c5.0132 7.8 8.3715 16.671 9.7668 25.833 1.2654 8.304.9409 16.801 2.2389 25.104 1.2005 7.736 3.8126 15.163 7.0898 22.25 2.9689 6.422 10.5134 17.888 12.4274 24.472-5.338 2.643-17.6515-14.936-21.4479-18.293z" fill="#00AD9F"/><path d="M55.5356 382.865c8.4689 3.698 11.8272 13.801 13.5956 22.866 2.0118 10.314 1.5575 21.488 6.2949 30.878 8.9231 17.692 20.5232 37.818 29.1539 43.834" stroke="#00AD9F" stroke-miterlimit="10" stroke-linecap="round" stroke-linejoin="round"/><path d="M42.8482 440.241c-7.3819-2.919-17.2622-4.119-21.9995 2.254-3.9587 5.336-1.9145 12.909.8274 18.958 2.32 5.108 5.2565 10.314 10.1237 13.087 3.3258 1.897 7.2358 2.465 11.0484 2.919a264.2062 264.2062 0 0032.0259 1.849c12.395-.033 27.4179 5.027 37.6879 12.763-13.1737-24.456-44.8426-42.019-69.7138-51.83z" fill="#0056EC"/><path d="M29.8853 456.134c9.4098.405 18.9007 1.054 27.9212 3.73 9.2314 2.724 44.7455 19.022 50.2935 25.947" stroke="#0B43A4" stroke-miterlimit="10" stroke-linecap="round" stroke-linejoin="round"/><path d="M123.448 390.033c-9.621-15.049-26.0715-25.558-43.7717-27.942-13.0764-1.751-26.526.681-39.4402-2.027-13.5631-2.838-25.7959-11.579-32.8695-23.498-7.0736-11.92-8.923-26.807-4.9482-40.089 3.0338-10.087 9.9614-19.655 19.9877-22.882 5.4675-1.751 11.4378-1.508 17.0188-.178 5.1592 1.232 9.9453 3.389 14.3581 6.195 10.0913 6.389 18.2519 16.217 24.3845 26.66 5.5648 9.487 19.2901 24.261 28.6355 33.878 5.483 5.611 9.458 9.454 9.458 9.454 6.392 7.979 3.391 30.942 7.187 40.429z" fill="#52D2BC"/><path d="M19.4697 302.769c31.4256 14.174 65.6904 32.759 87.9823 59.063" stroke="#00AD9F" stroke-miterlimit="10" stroke-linecap="round" stroke-linejoin="round"/><path opacity=".2" d="M110.469 358.296s-46.8221-37.947-56.7024-78.668c10.0912 6.389 18.2518 16.217 24.3844 26.66 5.5648 9.487 19.2902 24.261 28.635 33.878 1.103 5.092 2.32 11.076 3.683 18.13zM112.626 207.284c-4.299 13.119-10.237 25.752-16.2397 38.223-3.1312 6.519-15.8344 21.601-22.6484 24.472.7949-17.012.8598-36.878-1.1195-54.052-1.8982-16.541 4.056-29.077-2.4336-44.418-.8274-1.962-1.6872-3.925-2.5471-5.887.6003.195 1.1843.405 1.7522.649 10.6753 4.573 15.6073 15.86 16.5158 26.823.7626 9.049-.876 18.114-2.0928 27.115-.5679 4.151-1.0221 8.4-.1298 12.47.0162.049.0324.082.0324.13 1.1195 4.849 8.2093 4.573 9.1178-.34l2.8392-15.066c.8436-4.508 1.7684-9.227 5.4675-12.374 1.46-1.248 3.342-2.027 5.256-1.962 3.051.114 4.965 1.898 6.23 4.217z" fill="#5275A0"/><path d="M110.469 348.793c-7.398-38.612-11.2918-44.564-8.031-54.246 4.154-12.341 1.817-24.731 5.727-37.153 3.91-12.406 6.571-25.752 3.423-38.385-.989-3.99-3.017-8.336-7.819-8.514-1.931-.065-3.7968.713-5.257 1.962-3.699 3.146-4.6238 7.865-5.4674 12.373l-2.823 15.066c-.9247 4.898-7.9983 5.19-9.1178.324-.0162-.048-.0162-.081-.0324-.129-.9086-4.071-.4381-8.32.1136-12.471 1.2167-9.017 2.8554-18.066 2.1091-27.131-.9086-10.963-5.8406-22.25-16.5321-26.807-3.7802-1.622-8.0633-1.978-12.0544-.957-11.1457 2.854-14.0336 13.752-12.395 23.045 1.1519 6.551 4.2182 12.568 6.9925 18.601 6.7816 14.741 1.8008 28.266 2.7418 44.467 2.5958 44.742 58.4221 89.955 58.4221 89.955z" fill="#7EE8D4"/><path d="M60.7266 184.434c5.4998 27.471 11.0646 55.138 21.7399 81.053 3.1312 7.589 4.6563 17.595 22.7785 38.255" stroke="#00AD9F" stroke-miterlimit="10" stroke-linecap="round" stroke-linejoin="round"/><path d="M275.287 191.472c-5.694-6.503-10.951-13.12-16.483-19.493-3.586-4.135-7.285-8.173-11.308-12-1.996-1.914-4.056-3.763-6.23-5.563-12.85-10.606-27.191-19.412-42.523-25.963-9.248-3.957-19.014-7.217-26.867-13.525-7.852-6.292-13.498-16.6389-10.886-26.3529 1.898-7.0058 7.853-12.4547 14.683-14.9521 6.814-2.4812 14.374-2.2866 21.464-.7622 19.793 4.2651 36.325 18.4874 47.568 35.3042.195.292.406.6.601.908 8.241 12.569 14.001 26.548 19.014 40.786 1.606 4.573 3.131 9.179 4.64 13.768 2.271 6.86 9.247 21.05 6.327 27.845z" fill="#5193F4"/><path d="M184.742 89.386c21.594 4.1191 36.876 18.406 52.889 33.456 16.013 15.049 27.63 34.72 33.065 56.013" stroke="#0B43A4" stroke-miterlimit="10" stroke-linecap="round" stroke-linejoin="round"/><path opacity=".2" d="M258.804 171.979c-.179 2.238-.114 4.476.308 6.746-5.403-1.232-9.15-9.616-11.616-18.746-2.418-8.871-3.618-18.472-3.991-22.899-.73-9.341-.13-18.812 1.8-28.007 8.242 12.569 14.002 26.548 19.015 40.786-1.72 5.109-3.196 10.282-4.413 15.504-.519 2.221-.925 4.411-1.103 6.616z" fill="#5275A0"/><path d="M296.265 94.0564c-1.834 8.0926-6.717 15.0816-11.032 22.1846-2.272 3.73-4.397 7.574-6.376 11.466-6.344 12.454-11.179 25.671-14.375 39.277-1.054 4.46-1.638 8.839-.795 13.363-10.643-2.432-14.893-32.677-15.607-41.661-1.282-16.185 1.476-32.775 8.144-47.5973 2.904-6.503 6.668-12.8925 12.46-17.0603 5.776-4.1678 13.953-5.6273 20.069-1.9947 3.683 2.1893 6.052 5.8219 7.203 9.9572 1.136 3.8597 1.185 8.1572.309 12.0655z" fill="#52D2BC"/><path d="M259.631 171.428c-6.619-16.623-2.596-51.797 8.015-73.9011 3.196-6.6652 7.755-12.9088 14.131-16.6225" stroke="#00AD9F" stroke-miterlimit="10" stroke-linecap="round" stroke-linejoin="round"/><path opacity=".2" d="M296.265 94.0575c-1.834 8.0925-6.717 15.0815-11.033 22.1845-2.271 3.73-4.396 7.574-6.376 11.466-2.904-4.898-4.899-10.298-5.451-15.941-.892-9.423 2.71-19.5096 10.367-25.0558 3.586-2.5785 7.788-4.0542 12.184-4.7191 1.136 3.8596 1.185 8.1571.309 12.0654z" fill="#5275A0"/><path d="M357.672 164.455c-.503 3.097-1.428 6.081-2.758 8.951-4.721 10.217-14.634 18.974-29.479 26.11 0 0-.827-16.152-1.006-20.482-.73-18.52-20.831-28.753-33.551-42.262-6.473-6.892-11.389-15.584-12.297-25.007-.893-9.422 2.709-19.5087 10.367-25.0549 6.424-4.638 14.828-5.6435 22.745-5.0435 12.752 1.0217 25.618 6.3571 33.551 16.3144.341.373.633.7784.925 1.1676 4.851 6.6324 7.35 14.7084 9.183 22.7524 3.18 13.93 4.607 28.428 2.32 42.554z" fill="#00AD9F"/><path d="M294.431 96.6349c13.92 7.2001 27.857 15.8931 35.952 29.2881 11.308 18.698 8.842 43.024.13 63.052" stroke="#00AD9F" stroke-miterlimit="10" stroke-linecap="round" stroke-linejoin="round"/><path d="M590.484 283.893c8.874-14.595 4.332-33.375 7.43-50.159 2.369-12.909 9.556-24.877 19.842-33.051 6.457-5.124 15.526-8.789 22.811-4.946 1.574.827 3.456 2.011 4.981 1.07.908-.551 1.265-1.686 1.492-2.724 1.85-9.065-2.514-18.974 1.055-27.52 1.914-4.606 5.889-8.044 10.091-10.72 8.112-5.173 17.603-8.141 27.207-8.53 2.548-.097 5.208 0 7.496 1.135 4.121 2.06 6.003 7.201 5.451 11.774-.552 4.573-3.083 8.676-5.873 12.341-9.312 12.179-22.957 22.688-24.758 37.899-.227 1.914-.227 3.957.649 5.676.86 1.67 2.45 2.854 3.342 4.492 2.872 5.271-2.676 11.255-8.079 13.833-4.948 2.368-10.302 3.844-15.77 4.363-3.764.357-7.998.438-10.561 3.211-4.721 5.124.697 13.314-.292 20.206-.617 4.298-3.732 7.768-6.879 10.784-5.825 5.595-12.184 10.606-18.982 14.969-5.516 3.535-11.341 6.649-16.224 10.995-4.883 4.346-8.826 10.233-9.15 16.768" fill="#52D2BC"/><path d="M602.165 269.687c1.444-7.071 4.737-13.623 7.998-20.061 5.095-10.071 10.286-20.287 17.976-28.542 5.841-6.276 12.963-11.238 18.901-17.417 4.235-4.411 7.836-9.406 10.675-14.822 1.542-2.935 2.872-6.017 4.933-8.595 2.466-3.065 5.824-5.255 8.76-7.882 3.959-3.535 7.139-7.93 9.28-12.795" stroke="#00AD9F" stroke-miterlimit="10" stroke-linecap="round" stroke-linejoin="round"/><path d="M717.857 294.012c-1.995 7.687-4.964 15.293-10.058 21.39-3.521 4.201-7.901 7.525-12.687 10.233-2.467 1.411-5.062 2.644-7.674 3.746-10.156 4.266-21.075 6.682-32.075 7.104-16.029.6-32.512-2.936-47.893 1.637-7.057 2.092-13.563 5.903-18.9 10.947-3.343 3.13-6.214 6.746-8.486 10.719l2.093-13.298c3.878-14.303 7.836-28.866 15.754-41.402 5.11-8.124 11.746-15.195 18.803-21.698 11.276-10.411 23.784-19.574 37.591-26.272 11.162-5.416 23.557-9.227 35.887-7.719 12.314 1.492 24.417 9.276 28.262 21.066 2.466 7.573 1.395 15.844-.617 23.547z" fill="#5193F4"/><path d="M592.658 336.371c11.778-17.417 29.414-30.812 49.369-37.461 12.427-4.152 25.585-5.725 38.175-9.358 12.589-3.632 25.163-9.795 32.545-20.628" stroke="#0B43A4" stroke-miterlimit="10" stroke-linecap="round" stroke-linejoin="round"/><path d="M600.413 464.112c.698-17.887 9.945-34.396 21.189-48.343 9.361-11.627 20.669-22.266 34.638-27.568 4.38-1.655 9.182-2.774 13.725-1.655 4.543 1.119 8.663 4.995 8.745 9.682.064 3.941-2.58 7.395-5.371 10.184-9.182 9.195-21.042 15.082-32.171 21.796-19.112 11.546-37.283 26.953-44.859 47.954" fill="#52D2BC"/><path d="M607.487 448.463c11.681-26.045 41.922-49.332 61.861-52.235" stroke="#00AD9F" stroke-miterlimit="10" stroke-linecap="round" stroke-linejoin="round"/><path d="M593.112 478.335c-.162-3 9.621-10.833 11.828-12.828 12.216-11.076 26.72-19.217 42.052-24.017 6.197-1.946 12.8-3.357 18.998-1.865 6.214 1.492 11.908 6.584 12.508 13.265.585 6.487-3.763 12.844-9.328 15.974-5.565 3.146-12.055 3.616-18.252 3.26-9.572-.552-18.982-2.936-28.586-2.871-9.621.081-23.119 1.054-29.22 9.082z" fill="#00AD9F"/><path d="M603.074 469.237c19.647-10.638 49.353-17.563 70.93-14.952" stroke="#00AD9F" stroke-miterlimit="10" stroke-linecap="round" stroke-linejoin="round"/><path opacity=".2" d="M357.672 164.454c-.503 3.098-1.428 6.082-2.758 8.952-6.896-14.611-12.963-33.683-14.423-57.1-.39-6.341 1.379-12.86 4.753-18.3252.341.373.633.7785.925 1.1677 4.851 6.6325 7.349 14.7085 9.183 22.7525 3.179 13.93 4.607 28.428 2.32 42.553z" fill="#5275A0"/><path d="M425.633 163.627c14.667-5.205 29.917-9.357 43.253-17.401 4.04-2.432 7.917-5.254 10.789-8.984 2.855-3.73 4.624-8.497 3.991-13.168-.649-4.735-3.683-9.276-2.661-13.963.682-3.081 2.986-5.481 4.754-8.108 4.202-6.2114 5.451-14.3362 3.326-21.5365-2.304-7.7193-8.096-13.9142-11.389-21.2605-2.693-6.0166-3.651-12.779-2.742-19.2983-12.314.1622-23.541 6.8922-35.644 9.1302-9.264 1.719-18.885.7784-28.067 2.8866-16.727 3.8435-30.42 18.5685-33.016 35.5315-7.755-1.3298-16.11 1.4595-21.513 7.2004-5.727 6.0976-8.955 14.7736-8.436 23.1256 3.78 60.7 38.548 92.356 38.548 92.356s33.21-44.516 38.807-46.511z" fill="#7EE8D4"/><path d="M392.813 163.206c-1.525-14.969 3.715-29.775 9.718-43.575 5.856-13.444 12.606-26.6287 21.658-38.1752 9.053-11.5465 20.556-21.4389 34.135-27.0176M405.873 63.6333c-1.542 13.3466-.455 29.4339 3.017 42.4077M411.389 101.257c15.25-9.7792 38.71-15.7146 56.799-14.6767M374.09 103.754c18.366 7.736 19.112 34.721 19.615 42.391M398.702 128.988c14.05-10.071 34.346-13.103 49.288-9.341M437.039 56.6924c-4.218 5.2056-5.273 11.4005-4.851 15.698M436.179 68.5795c6.474-3.3083 15.137-4.0705 24.401-1.7514" stroke="#00AD9F" stroke-miterlimit="10" stroke-linecap="round" stroke-linejoin="round"/><path d="M74.9391 97.9485c1.7197-.0973 13.4982-8.8059 18.0247-11.7412 1.2817-.827 2.5634-1.6865 3.4557-2.919.8923-1.2325 1.3141-2.9191.6652-4.2975-.8112-1.7028-2.1416-3.4056-5.4999-3.4056-5.8568.0162-7.901 1.946-10.7564 4.8813-9.4261 9.7464-5.8893 17.482-5.8893 17.482zM127.716 133.091c5.126 2.303 10.594 4.589 16.175 3.876 2.157-.276 4.526-1.265 5.24-3.309.617-1.751-.227-3.778-1.622-5.011-1.396-1.232-3.229-1.832-5.046-2.27-6.814-1.67-16.402-.746-23.151 1.168-.017 0 5.337 4.167 8.404 5.546zM161.461 57.4222c-2.288-1.4433-4.819-3.3732-4.803-6.0814 0-2.7083 2.823-4.7678 5.533-4.784 2.709-.0162 5.224 1.4595 7.268 3.2596 8.615 7.5733 7.544 16.2008 7.544 16.2008s-12.995-6.9895-15.542-8.595zM168.259 34.3453c-2.012-.8595-4.073-1.8974-5.257-3.7461-.568-.8919-.892-2.0271-.551-3.0326.584-1.6703 1.638-3.1785 5.873-2.4163 13.384 2.4325 16.305 11.5952 16.305 11.5952s-12.817-.8758-16.37-2.4002zM207.472 54.6166c5.37-.4703 10.918-3.1299 14.293-7.3301 1.282-1.5893 2.45-3.3245 2.872-5.3192.421-1.9947-.033-4.2651-1.574-5.5949-1.882-1.6217-4.867-1.3622-6.928 0-2.076 1.3623-3.407 3.6002-4.478 5.8219-1.427 2.984-4.185 12.4223-4.185 12.4223z" fill="#4A49CA"/><path d="M111.605 250.291c-12.9954-11.449-26.0069-22.915-39.0022-34.364-6.9276-6.097-14.0012-12.39-18.3816-20.514-9.4261-17.466-3.9911-40.154 8.7446-55.381 12.7357-15.228 31.3932-24.212 50.1482-30.748 18.738-6.535 38.256-11.1247 56.118-19.7846 11.211-5.4327 22.47-13.5088 25.553-25.5742 1.849-7.249.292-15.3089-4.121-21.3416-4.413-6.049-11.617-9.9735-19.096-10.4114M216.557 42.162c-3.553 10.8978-17.392 17.5306-23.703 26.9851" stroke="#0B43A4" stroke-miterlimit="10" stroke-linecap="round" stroke-linejoin="round"/><path d="M166.879 54.6976c2.726 2.8704 5.987 5.2543 8.372 8.4167 5.029 6.6976 5.435 17.5792-1.996 24.3255M96.8735 115.739c11.4705 8.838 26.5425 14.725 41.0135 15.276M70.6233 131.826c-5.2889-15.569.4705-34.2181 13.6119-44.0943" stroke="#0B43A4" stroke-miterlimit="10" stroke-linecap="round" stroke-linejoin="round"/><path d="M489.864 66.0496c-.617-1.9298-.584-4.2975.827-5.7408 1.136-1.1352 3.018-1.6541 4.494-1.0055 11.406 5.0111 10.173 22.8012 10.173 22.8012s-10.805-1.5569-15.494-16.0549zM489.588 99.3756c-7.382 13.3304 18.836 12.3084 28.294 4.4594 0 0-21.934-15.9411-28.294-4.4594zM522.75 67.0713c-1.785-2.4326-2.418-6.0652-.471-8.3842 1.444-1.719 3.959-2.2542 6.165-1.8326 2.207.4217 5.516 2.465 6.928 4.2165 8.631 10.7356 4.575 21.2281 4.575 21.2281s-14.293-11.2384-17.197-15.2278zM626.874 100.073c-.633-2.0759-.487-4.6058 1.119-6.0653 1.022-.9244 2.466-1.2487 3.829-1.1514 1.363.0973 2.677.6 3.926 1.1676 2.677 1.2163 4.754 3.357 6.036 6.0001 3.244 6.682 1.038 14.936 1.038 14.936s-14.358-9.714-15.948-14.887zM594.118 124.528c-4.64-4.07-11.729-5.27-17.391-2.789-1.444.632-2.807 1.524-3.716 2.789-2.076 2.871-1.346 7.055.811 9.86 2.142 2.806 5.403 4.508 8.632 5.968 5.84 2.643 14.893 3.179 21.107 4.768-.016-.016-.033-12.341-9.443-20.596z" fill="#4A49CA"/><path d="M498.041 68.92c3.861 12.6169 14.779 22.1525 26.931 27.2933 12.152 5.1567 25.536 6.5197 38.726 7.3627 13.174.859 26.51 1.281 39.246 4.735 12.411 3.373 24.79 10.379 30.111 22.088 6.49 14.255.747 31.282-8.371 44.029-9.102 12.73-21.367 22.996-30.177 35.937-4.039 5.935-7.43 12.909-6.603 20.044 1.087 9.519 9.118 16.525 16.565 22.558M528.412 64.282c8.728 9.6491 15.704 24.7472 17.408 37.656" stroke="#0B43A4" stroke-miterlimit="10" stroke-linecap="round" stroke-linejoin="round"/><path d="M499.046 101.581c4.997 1.33 10.059 2.66 15.218 2.676 5.16.016 11.146-2.854 14.861-6.4383M635.424 100.851c4.672 4.509 7.528 10.882 7.771 17.369.243 6.503-3.358 14.368-7.69 19.217M586.477 130.334c9.345 8.595 17.473 15.552 27.856 22.85 4.737 3.34 14.147 7.605 18.333 6.503" stroke="#0B43A4" stroke-miterlimit="10" stroke-linecap="round" stroke-linejoin="round"/><path opacity=".2" d="M695.11 325.635c-2.466 1.411-5.062 2.644-7.674 3.746-10.156 4.266-21.075 6.682-32.074 7.104-16.03.6-32.513-2.936-47.893 1.637-7.057 2.092-13.563 5.903-18.901 10.947-.535.259-1.071.551-1.606.859-1.282-10.849 25.78-24.99 34.005-28.671 14.845-6.649 31.393-9.601 47.617-8.303 7.106.567 14.391 1.962 20.247 6 2.515 1.735 4.722 4.054 6.279 6.681z" fill="#5275A0"/><path d="M668.569 319.441c7.107.567 14.391 1.962 20.248 6 5.857 4.038 9.994 11.254 8.631 18.244-1.59 8.141-10.01 13.444-18.252 14.433-8.242 1.006-16.467-1.265-24.595-2.935-17.992-3.698-36.553-4.557-54.804-2.498-4.559.503-8.875 1.411-12.85 3.746-1.281-10.849 25.796-24.99 34.022-28.671 14.845-6.665 31.393-9.617 47.6-8.319z" fill="#52D2BC"/><path d="M593.988 349.588c13.434-11.806 47.942-19.817 72.342-17.239 7.35.779 14.764 2.968 20.41 7.736" stroke="#00AD9F" stroke-miterlimit="10" stroke-linecap="round" stroke-linejoin="round"/><path d="M568.89 216.933l131.235-.276c15.396-.033 27.905 12.422 27.937 27.812.033 15.39-12.427 27.893-27.824 27.926l-89.766.178M171.828 313.245l-91.7786.195c-8.6959.016-15.7209 7.071-15.7046 15.763.0162 8.692 7.0736 15.714 15.7695 15.698l26.7527-.049" stroke="#0B43A4" stroke-miterlimit="10" stroke-linecap="round" stroke-linejoin="round" stroke-dasharray="4 4"/><path d="M25.3423 384.276c-31.4418.065-32.0908 46.948 7.901 46.851 40.008-.081 564.8007-1.168 589.5427-1.216 24.741-.049 27.353-38.645-3.229-38.58-60.888.129-62.9-28.899-29.106-28.964" stroke="#C8DBFB" stroke-miterlimit="10" stroke-linecap="round" stroke-linejoin="round" stroke-dasharray="4 4"/><path d="M32.6919 382.979c.7138 4.232-2.1253 8.238-6.3598 8.968-4.2344.713-8.2417-2.125-8.9718-6.357-.7138-4.233 2.1254-8.239 6.3598-8.968 4.2344-.714 8.2579 2.124 8.9718 6.357z" fill="#5193F4"/><path d="M605.54 362.578c.713 4.232-2.126 8.238-6.36 8.968-4.235.713-8.242-2.125-8.972-6.357-.714-4.233 2.125-8.239 6.36-8.968 4.234-.714 8.241 2.14 8.972 6.357z" fill="#0B43A4"/><path opacity=".2" d="M613.992 498.12l-488.159 1.005c-6.506.016-11.811-5.254-11.811-11.757l-.665-323.254c-.016-6.503 5.256-11.806 11.762-11.806l488.16-1.006c6.505-.016 11.811 5.255 11.811 11.758l.665 323.254c.016 6.503-5.241 11.789-11.763 11.806z" fill="#5275A0"/><path d="M604.437 491.939l-488.16 1.006c-6.505.016-11.811-5.255-11.811-11.758l-.665-323.254c-.016-6.503 5.257-11.806 11.763-11.806l488.159-1.005c6.506-.016 11.811 5.254 11.811 11.757l.665 323.254c.016 6.503-5.256 11.79-11.762 11.806z" fill="#fff"/><path d="M602.928 145.108l-486.066 1.005c-7.09.016-12.817 5.773-12.817 12.86l.016 11.157 511.749-1.054-.016-11.157c-.016-7.087-5.776-12.828-12.866-12.811z" fill="#0056EC"/><path d="M117.446 492.946l73.445-.146-.665-322.848-86.279.178.633 310.037c.016 7.071 5.776 12.796 12.866 12.779z" fill="#C8DBFB"/><path d="M603.869 148.351c4.705 0 8.534 3.827 8.55 8.53l.665 323.254c0 2.287-.876 4.427-2.498 6.049-1.606 1.622-3.748 2.514-6.035 2.514l-488.176 1.005c-4.705 0-8.534-3.827-8.55-8.53l-.665-323.254c0-2.287.876-4.427 2.498-6.049 1.606-1.622 3.748-2.514 6.036-2.514l488.143-1.005h.032zm0-3.243h-.032l-488.16 1.005c-6.505.016-11.778 5.303-11.762 11.806l.665 323.254c.016 6.503 5.289 11.757 11.795 11.757h.032l488.16-1.005c6.506-.016 11.778-5.303 11.762-11.806l-.665-323.254c-.016-6.503-5.289-11.757-11.795-11.757z" fill="#0056EC"/><path d="M178.496 468.264l-56.605.114c-2.499 0-4.527-2.011-4.527-4.509v-.567c0-2.498 2.012-4.525 4.51-4.525l56.605-.113c2.499 0 4.527 2.01 4.527 4.508v.568c.016 2.497-2.012 4.524-4.51 4.524zM171.698 249.237l-48.185.097c-4.575.017-8.29-3.697-8.306-8.27l-.098-48.165c-.016-4.573 3.699-8.287 8.275-8.303l48.184-.097c4.576-.017 8.291 3.697 8.307 8.27l.097 48.165c0 4.589-3.699 8.303-8.274 8.303z" fill="#fff"/><path d="M377.984 393.52l-167.884.34c-3.261 0-5.906-2.627-5.922-5.886v-.73c0-3.26 2.628-5.903 5.889-5.919l167.885-.341c3.261 0 5.905 2.627 5.922 5.887v.73c0 3.276-2.629 5.919-5.89 5.919zM368.282 202.321l-132.662.276c-3.261 0-5.906-2.627-5.922-5.887v-.73c0-3.259 2.628-5.903 5.889-5.919l132.663-.276c3.261 0 5.905 2.628 5.922 5.887v.73c0 3.276-2.629 5.919-5.89 5.919zM578.008 336.452l-176.889.373c-3.261 0-5.905-2.627-5.921-5.887v-.729c0-3.26 2.628-5.903 5.889-5.92l176.889-.356c3.261 0 5.905 2.627 5.921 5.886v.73c0 3.244-2.628 5.887-5.889 5.903zM378.033 419.451l-167.884.34c-3.261 0-5.906-2.627-5.922-5.886v-.73c0-3.26 2.628-5.903 5.889-5.919l167.885-.341c3.261 0 5.905 2.627 5.921 5.887v.73c.017 3.259-2.628 5.903-5.889 5.919zM378.081 445.366l-167.884.34c-3.261 0-5.905-2.627-5.922-5.887v-.729c0-3.26 2.629-5.903 5.89-5.92l167.884-.34c3.261 0 5.905 2.627 5.922 5.887v.729c.016 3.26-2.629 5.92-5.89 5.92zM574.406 462.264l-169.198.357c-5.387.016-9.767-4.347-9.767-9.731l-.146-72.636c-.016-5.384 4.348-9.762 9.734-9.762l169.199-.357c5.386-.016 9.766 4.346 9.766 9.73l.146 72.636c.017 5.384-4.347 9.763-9.734 9.763zM132.112 157.854c0 2.287-1.85 4.135-4.121 4.135-2.271 0-4.137-1.848-4.137-4.119 0-2.286 1.85-4.135 4.121-4.135 2.271 0 4.137 1.849 4.137 4.119zM145.496 161.973c2.285 0 4.138-1.851 4.138-4.135s-1.853-4.135-4.138-4.135c-2.284 0-4.137 1.851-4.137 4.135s1.853 4.135 4.137 4.135zM167.139 157.789c0 2.287-1.849 4.136-4.121 4.136-2.271 0-4.137-1.849-4.137-4.12 0-2.286 1.85-4.135 4.121-4.135 2.272-.016 4.121 1.833 4.137 4.119zM223.205 197.593c.659-6.568-4.134-12.425-10.705-13.084-6.57-.658-12.431 4.133-13.089 10.701-.659 6.568 4.134 12.426 10.705 13.084 6.571.658 12.431-4.133 13.089-10.701z" fill="#C8DBFB"/><path d="M175.056 259.34l-52.97.114c-1.233 0-2.223-.989-2.239-2.222v-.276c0-1.232.989-2.221 2.222-2.238l52.971-.113c1.233 0 2.223.989 2.239 2.222v.275c0 1.233-.99 2.238-2.223 2.238zM175.073 269.46l-52.971.113c-1.233 0-2.223-.989-2.239-2.222v-.275c0-1.233.989-2.222 2.222-2.238l52.971-.114c1.233 0 2.223.989 2.239 2.222v.276c0 1.232-.989 2.221-2.222 2.238z" fill="#fff"/><path d="M235.717 290.834l-14.974.146.113 62.727-12.93.033c-4.559.016-8.258-3.682-8.274-8.239l-.244-116c-.016-4.606 3.715-8.352 8.323-8.352l27.824-.065.162 69.75z" fill="#C8DBFB"/><path d="M332.882 220.89v1.621c4.478 0 8.128 3.633 8.128 8.109l.227 113.097c0 2.173-.844 4.217-2.369 5.757-1.525 1.541-3.569 2.384-5.743 2.401l-123.739.259c-4.478 0-8.128-3.633-8.128-8.109l-.227-113.097c0-2.173.843-4.216 2.368-5.757 1.525-1.541 3.57-2.384 5.744-2.4l123.723-.26.016-1.621zm0 0h-.016l-123.723.259c-5.387.016-9.751 4.379-9.735 9.763l.227 113.097c.017 5.384 4.381 9.73 9.751 9.73h.016l123.723-.259c5.387-.016 9.751-4.379 9.735-9.763l-.228-113.097c0-5.384-4.364-9.747-9.75-9.73zM539.476 313.959l-165.028-37.283c-5.257-1.184-8.55-6.405-7.366-11.66l18.56-82.107c1.184-5.254 6.408-8.546 11.665-7.362l165.029 37.283c5.256 1.184 8.55 6.406 7.365 11.66l-18.56 82.107c-1.184 5.254-6.408 8.562-11.665 7.362z" fill="#C8DBFB"/><path d="M220.094 537.267l-23.087.049-5.662-29.401 34.281-.065-5.532 29.417z" fill="#0056EC"/><path d="M197.738 507.898c0 2.401-.455 6.422 1.151 6.487 1.607.065.941-3.827 2.758-3.713 1.169.064-.535 12.779 3.862 13.087 3.017.211 2.466-6.228 2.774-10.266.211-2.724 3.699-2.189 3.732-.389.032 2.027-.098 3.373 0 5.676.162 3.844 6.067 2.822 5.856-2.303-.211-5.124-.016-8.595-.016-8.595l-20.117.016z" fill="#C8DBFB"/><path d="M192.221 525.656c-.47 0-.925-.049-1.363-.146-1.703-.373-2.887-1.265-3.553-2.66-2.352-4.995 3.845-14.336 4.089-14.757l.324 1.686c-.048.098-5.451 8.125-3.326 12.617.503 1.07 1.396 1.735 2.742 2.027.373.081.763.114 1.152.114 8.323-.016 22.535-15.504 22.697-15.682.584-.697 1.671-.032 1.282.551-.665.746-15.104 16.234-24.044 16.25z" fill="#0C2340"/><path opacity=".2" d="M434.865 123.523c-32.821-1.249-78.004 23.012-61.975 82.334-.341 5.011 2.661 8.595 5.857 7.622 3.196-.973.373-10.493.373-10.493 5.468-44.11 15.689-51.732 33.032-51.57l40.706-.081c10.058 1.476 28.343 8.514 31.084 43.818l10.14 1.865c.795-25.509-5.37-71.436-59.217-73.495z" fill="#5275A0"/><path d="M434.865 118.35c-32.821-1.249-78.004 23.011-61.975 82.333l6.23-2.87c5.468-44.11 15.689-51.732 33.032-51.57l40.706-.081c10.058 1.475 28.829 10.411 31.571 45.715l9.637-.016c.811-25.525-5.354-71.452-59.201-73.511z" fill="#EF832B"/><path d="M428.149 119.323l-4.867 10.703s.584 6.032 6.506 5.903c5.921-.13 6.716-2.854 6.716-2.854l.779-12.293-9.134-1.459z" fill="#FFB9A3"/><path d="M453.215 110.387c-5.549 9.811-8.015 12.876-15.283 14.352-9.41 1.914-19.956-4.427-15.056-20.06 3.991-12.747 10.059-10.7847 15.98-10.2982 5.922.4703 20.361 5.4003 14.359 16.0062z" fill="#FFB9A3"/><path d="M431.118 102.635c-1.477-.762-3.375-.113-4.527 1.087-1.184 1.248-1.752 3.097-1.249 4.735-2.271.033-4.267 2.254-4.056 4.525-1.557-3.617-.714-7.395-1.022-11.109-.308-3.7137.097-7.7355 2.498-10.5735.99-1.1676 2.256-2.0595 3.602-2.7731 5.111-2.7244 11.552-2.8055 16.743-.2432 1.071.5351 3.764 2.2217 7.528 1.3136 7.171-1.7353 11.357 3.1136 7.057 7.6544 1.379.5027 2.904 1.119 3.521 2.4487.162.3411.243.7621.032 1.0701-.146.211-.405.325-.665.406-1.2.405-2.514.502-3.78.292.487.405 3.148.567 3.942 2.124 2.142 4.119-6.327 2.043-7.625 1.622 1.477.275 5.338 3.357 4.105 5.481-.243.422-5.468 3.454-10.951-2.919-1.282-1.476-2.872-2.854-4.754-3.357-1.476-.389-3.034.146-4.478.697-1.054.39-3.731 2.028-4.494 1.055-.795-1.038.292-2.676-1.427-3.536z" fill="#0C2340"/><path d="M485.484 191.861c-1.461 5.011-2.921 5.498-1.169 6.293 1.769.794 3.197-2.011 3.197-2.011l8.144 1.621s-1.833-5.286-3.115-5.919c-1.282-.632-7.057.016-7.057.016zM379.12 197.813c1.071 2.643 1.363 2.66 2.839 5.838 2.839 6.065-3.796 15.65-7.917 5.19-1.136-2.871-1.152-8.141-1.152-8.141l6.23-2.887z" fill="#FFB9A3"/><path d="M442.718 89.1426c5.564.3081 12.411-3.6164 16.775 1.4109.406.4702 1.217-.146.86-.6649-4.17-5.9841-11.909-1.5244-17.619-1.6866-.617 0-.601.9081-.016.9406zM444.957 86.0776c-3.797.6649-7.463-1.1352-11.276-.5352-3.099.4866-5.857 2.0758-8.193 4.103-.6.5189.179 1.5406.86 1.1027 3.277-2.1569 6.425-4.0218 10.513-3.7137 2.969.2108 5.484 1.1028 8.436.2108.747-.227.422-1.2973-.34-1.1676zM423.314 91.267c-2.677 1.6704-4.218 3.8921-4.543 7.0868-.227 2.3032-.292 7.5732 2.028 8.8712.552.308 1.136-.422.682-.892-1.493-1.509-1.623-5.579-1.509-7.4926.162-2.9353 1.395-5.1733 3.731-6.9247.373-.2757.033-.9082-.389-.6487zM464.474 100.397c-1.379-2.3837-4.9-4.4919-7.609-2.9837-.422.2432-.227.8919.243.8919 1.185.0162 2.271-.1298 3.423.227 1.314.4054 2.418 1.1677 3.196 2.2868.325.454 1.023.065.747-.422z" fill="#0C2340"/><path d="M283.935 347.788c17.213 6.324 32.155 26.044 28.716 40.396-3.878 16.201-15.056 23.191-15.056 23.191l-3.521-6.503s8.94-13.963 8.161-20.563c-1.249-10.558-14.585-17.628-14.585-17.628l-3.715-18.893z" fill="#0B43A4"/><path d="M241.574 530.586s-10.561 4.265-13.206 6.681l20.929-.048-.016-6.649-7.707.016zM287.828 530.181s3.002 3.47 3.553 6.957l-14.277.032c.244-2.4 1.266-4.719 2.661-6.973l8.063-.016z" fill="#0C2340"/><path d="M288.704 530.489l-9.75.016c.195-11.482-2.174-50.613-4.462-79.869-1.346-17.157-2.677-30.942-3.455-33.731l5.224-1.152 19.712-4.378c3.374 15.406-4.413 86.145-7.269 119.114z" fill="#047F76"/><path d="M252.866 416.288c-7.609 11.969-9.572 98.503-12.752 114.541l9.248.519s10.626-54.554 33.242-115.887l-29.738.827z" fill="#009790"/><path opacity=".2" d="M286.498 415.461c-4.462 12.115-8.469 23.969-12.006 35.175-1.346-17.158-2.677-30.942-3.455-33.731l5.224-1.152 10.237-.292z" fill="#5275A0"/><path d="M252.866 416.288c-7.609 11.969-9.572 98.503-12.752 114.541l9.248.519s10.626-54.554 33.242-115.887l-29.738.827z" fill="#009790"/><path d="M258.674 319.684s-5.921 22.541 8.875 22.525l-.876 5.757 11.227 1.233-2.434-8.028s2.223-14.173 2.369-16.736c.275-4.784-13.125-13.2-19.161-4.751z" fill="#FFB9A3"/><path d="M222.104 294.414l-4.364.009.037 18.406 4.364-.009-.037-18.406z" fill="#0C2340"/><path d="M232.424 294.385l-25.017.049c-1.752 0-3.18-1.411-3.18-3.163v-.648c0-1.752 1.412-3.179 3.164-3.179l25.017-.048c1.752 0 3.18 1.41 3.18 3.162v.649c.016 1.751-1.412 3.178-3.164 3.178z" fill="#0056EC"/><path d="M216.573 317.624c-.113-4.168-3.569-3.081-1.671-9.892 1.168-4.217 9.881.681 8.794 3.6-1.087 2.919-2.337 7.541-2.337 7.541l-4.786-1.249z" fill="#FFB9A3"/><path d="M267.646 346.653c-22.113 1.459-23.573 8.919-33.47 7.751-14.65-1.719-12.086-28.915-10.269-38.661l-8.745.016s-15.77 61.933 34.038 50.484c-1.915 10.849 10.48 28.574-1.542 50.078 18.901 5.141 36.553 6.389 51.657-.097-2.644-3.568 5.419-39.554-10.367-65.452-3.082-5.076-19.679-4.233-21.302-4.119z" fill="#0056EC"/><path d="M267.646 346.653c-22.113 1.459-23.573 8.919-33.47 7.751-14.65-1.719-12.086-28.915-10.269-38.661l-8.745.016s-15.77 61.933 34.038 50.484c-1.915 10.849 10.48 28.574-1.542 50.078 18.901 5.141 36.553 6.389 51.657-.097-2.644-3.568 5.419-39.554-10.367-65.452-3.082-5.076-19.679-4.233-21.302-4.119z" fill="#0056EC"/><path d="M264.596 324.014c1.444.373 3.115.648 3.894 1.865.503.794.47 1.783.422 2.708.259-.973 1.346-1.671 2.368-1.541 1.039.114 1.915 1.038 1.931 2.044.016.47-.146.924-.324 1.362-.438 1.102-.99 2.14-1.639 3.13 1.801.665 3.326 5.951 4.218 7.589 3.034-.762 9.799-3.373 10.383-14.125.276-5.011-1.249-11.011-6.684-14.336-3.845-2.351-10.205-2.384-14.601-1.265-3.569.909-9.248 4.476-6.603 8.628 1.33 2.092 4.25 3.324 6.635 3.941z" fill="#EF832B"/><path d="M283.546 317.17c2.06-.681 4.672-.324 5.905 1.395.957 1.346.876 3.097 1.184 4.703.147.778.422 1.556 1.023 2.092.713.632 1.752.794 2.725.843 2.385.13 4.786-.178 7.139.227 2.352.405 4.753 1.719 5.418 3.908.374 1.217.163 2.546.617 3.73.665 1.784 2.563 2.806 4.218 3.844 3.521 2.205 6.522 5.189 8.68 8.643 1.379 2.19 2.434 4.622 2.596 7.168.162 2.546 2.012 5.919 1.509 8.417-.536 2.708-3.197 6.373-8.453 8.06-9.085 2.919-11.973 4.184-20.685-.99-1.055-.616-3.099-2.74-4.056-3.502-.747-.6-1.217-1.46-1.477-2.352-.73-2.497.114-5.189 1.412-7.46 1.298-2.27 3.066-4.281 4.396-6.535.795-1.362 1.444-2.871 1.379-4.427-.032-.584-.178-1.184-.6-1.606-.373-.357-.892-.535-1.411-.632-1.915-.373-4.024.016-5.744-.844-1.687-.827-2.612-2.87-2.093-4.622.341-1.167 1.233-2.156 1.477-3.34.357-1.719-.714-3.471-2.207-4.476-1.492-1.006-3.325-1.395-5.126-1.687-.893-.146-1.817-.292-2.531-.811-.893-.632-1.298-1.751-1.282-2.805.065-3.373 2.807-5.887 5.987-6.941z" fill="#EF832B"/><path d="M281.906 326.235c10.935 2.368-2.871 12.731 2.921 17.693 1.655 1.411 3.569.973 5.5 1.233 7.43 1.021 3.358 6.065 2.855 10.022-.081.6.909.713 1.038.146.633-2.725 3.132-6.065 1.85-8.968-1.136-2.563-3.959-2.254-6.279-2.336-2.904-.081-6.1 0-5.013-5.757.243-1.281 1.266-2.578 1.768-3.794.568-1.395.958-2.773.649-4.298-.535-2.578-2.677-4.087-5.143-4.492-.356-.081-.519.47-.146.551zM259.372 312.84c8.436-4.281 16.84-3.422 23.963 2.854.486.422 1.135-.227.714-.713-6.247-7.038-17.36-8.271-24.904-2.546-.243.194-.049.551.227.405z" fill="#EF832B"/><path d="M542.738 339.29l-3.651 7.363 8.924 3.649.957-8.466-6.23-2.546z" fill="#FFB9A3"/><path d="M548.124 315.37c-20.264 8.822-11.957 30.196.373 27.682 6.003-1.216 9.037-20.546 9.037-20.546l-9.41-7.136z" fill="#FFB9A3"/><path d="M554.857 312.337c-.665-1.232-1.298-2.562-2.401-3.438-1.103-.875-2.839-1.167-3.861-.21-1.363 1.265-.568 3.632.811 4.881-1.184.146-2.596-.681-3.472.146-.665.616-.438 1.719-.049 2.546.893 1.93 2.353 3.616 4.154 4.752-1.022.583-2.223 1.719-1.606 2.724.178.276.454.47.632.746.39.649.017 1.492-.389 2.141-.633 1.054-1.33 2.075-2.061 3.065.698-.957 2.402-.568 2.905.502.502 1.071.064 2.384-.731 3.26-.438.486-.989.892-1.638 1.038-.552.13-3.018 7.719-1.103 9.211 2.368 1.833 10.415.243 11.583-1.832 1.169 1.264 2.872 2.221 4.559 1.881 1.688-.341 2.969-2.417 2.061-3.876 1.817.665 4.04.081 5.289-1.411 1.249-1.492 1.428-3.779.438-5.449.99-.292 1.2-1.638.941-2.643-.519-2.027-2.174-3.746-4.202-4.314 1.022.016 1.833-1.022 1.882-2.043.048-1.022-.487-1.995-1.136-2.79-1.898-2.351-4.153-2.967-6.96-3.324-2.823-.341-4.38-3.227-5.646-5.563z" fill="#4A49CA"/><path d="M535.875 529.191s-11.859 5.693-13.449 7.46c0 0 23.33 1.054 25.163-.048 1.833-1.103-3.732-7.428-3.732-7.428l-7.982.016zM579.988 522.753s-10.416 8.028-11.616 10.087c0 0 24.595-3.649 24.595-5.254 0-1.606-5.192-6.503-5.192-6.503l-7.787 1.67z" fill="#0C2340"/><path d="M547.329 419.289c-.438 2.416-16.678 66.473 29.787 104.891l13.45-3.081s-15.656-14.676-23.038-41.11c-6.976-24.99-1.444-27.439 2.742-41.191 4.64-15.228 1.184-26.288 1.184-26.288l-24.125 6.779z" fill="#D8742A"/><path d="M525.135 419.094c-7.366 17.596-20.004 77.55 7.544 111.298l13.758-.033s-10.838-11.871-12.055-39.424c-1.216-27.552 5.792-39.65 10.741-48.732 4.948-9.097 9.523-24.536 9.523-24.536l-29.511 1.427z" fill="#EF832B"/><path d="M515.433 310.035c-3.65 12.876-4.851 36.683 13.45 46.267l12.249-2.984s-22.097-11.579-17.36-40.835l-8.339-2.448z" fill="#0B43A4"/><path d="M481.671 303.45l9.507-1.167s-1.152 39.926 44.989 43.299c35.222 2.563 37.98 68.631 37.98 68.631-11.357 7.638-30.404 9.957-54.821 8.205 0 0 1.558-47.126-2.32-60.035 0-.016-38.337-12.065-35.335-58.933z" fill="#0056EC"/><path d="M470.039 296.202c-1.607 1.864 5.11 4.232 11.632 7.249l8.355-1.022s.098-1.671 0-3.406c-.097-1.735-.973-2.724-1.963-1.232-.989 1.492-5.208 1.994-7.203.632-2.012-1.378-9.215-4.086-10.821-2.221zM515.433 310.035c-3.067-3-2.239-2.822-2.239-2.822l9.329 2.108s2.044-4.557 3.796-4.67c1.736-.13-1.314 3.13-.616 4.346.697 1.216-1.915 3.503-1.915 3.503l-8.355-2.465z" fill="#FFB9A3"/><path d="M560.097 316.732c1.915.487 3.861.681 5.451 1.995 1.574 1.297 2.288 3.519 1.152 5.319-.535.843.73 1.508 1.298.762 1.444-1.897 1.055-4.492-.405-6.292-1.688-2.06-4.819-2.919-7.382-2.643-.455.048-.617.729-.114.859zM568.533 334.036c1.266.746 2.32 1.946 1.785 3.519-.503 1.443-1.963 2.303-3.147 3.13-.568.405-.082 1.265.551.94 1.752-.924 3.602-2.221 3.878-4.362.243-1.865-1.006-3.276-2.564-4.119-.568-.292-1.054.551-.503.892zM547.232 343.701c4.299 2.676 10.383 2.238 13.936-1.524.438-.47-.163-1.346-.714-.925-3.894 2.887-8.307 3.811-12.866 1.849-.405-.178-.746.357-.356.6z" fill="#4A49CA"/><path d="M569.101 319.554c2.466 2.351 0 5.562-1.59 7.573-.357.438.195 1.038.633.633 1.411-1.314 2.823-2.773 3.017-4.784.146-1.525-.486-2.968-1.833-3.714-.178-.097-.389.146-.227.292z" fill="#4A49CA"/><path d="M294.658 23.3015l-3.796-9.2924L327.576.0625l-32.918 23.239z" fill="#0B43A4"/><path d="M296.508 17.5607L327.577.0625 305.95 22.0203l-9.442-4.4596zM282.458 10.2143L327.577.0625l-36.715 13.9466-8.404-3.7948z" fill="#5193F4"/><path d="M296.508 17.5607l-1.85 5.7408 5.614-3.957-3.764-1.7838z" fill="#0056EC"/><path d="M290.343 22.0528c-9.588-1.6217-22.6 8.076-17.003 18.163 1.898 3.438 11.73 1.9461 11-1.8487-.357-1.8163-2.58-2.5947-4.413-2.3839-10.708 1.2325-11.146 10.2005-10.659 12.4871 2.45 11.806 20.556 7.8166 26.64 6.1462" stroke="#C8DBFB" stroke-miterlimit="10" stroke-linecap="round" stroke-linejoin="round" stroke-dasharray="4 4"/></svg>